<svg xmlns="http://www.w3.org/2000/svg" width="100" height="100" viewBox="0 0 100 100">
  <metadata><?xpacket begin="﻿" id="W5M0MpCehiHzreSzNTczkc9d"?>
<x:xmpmeta xmlns:x="adobe:ns:meta/" x:xmptk="Adobe XMP Core 5.6-c142 79.160924, 2017/07/13-01:06:39        ">
   <rdf:RDF xmlns:rdf="http://www.w3.org/1999/02/22-rdf-syntax-ns#">
      <rdf:Description rdf:about=""/>
   </rdf:RDF>
</x:xmpmeta>
                                                                                                    
                                                                                                    
                                                                                                    
                                                                                                    
                                                                                                    
                                                                                                    
                                                                                                    
                                                                                                    
                                                                                                    
                                                                                                    
                                                                                                    
                                                                                                    
                                                                                                    
                                                                                                    
                                                                                                    
                                                                                                    
                                                                                                    
                                                                                                    
                                                                                                    
                                                                                                    
                           
<?xpacket end="w"?></metadata>
<defs>
    <style>
      .cls-1 {
        fill: #fff;
        fill-rule: evenodd;
      }
    </style>
  </defs>
  <path id="Forma_1" data-name="Forma 1" class="cls-1" d="M4687,565a50,50,0,1,1,50-50A50.056,50.056,0,0,1,4687,565Zm0-96.774A46.774,46.774,0,1,0,4733.77,515,46.825,46.825,0,0,0,4687,468.226Zm0,81.182A34.449,34.449,0,0,1,4652.59,515h3.23a31.18,31.18,0,1,0,62.36,0h3.23A34.449,34.449,0,0,1,4687,549.408Zm-17.2-40.322a6.99,6.99,0,1,1,6.99-6.989A6.993,6.993,0,0,1,4669.8,509.086Zm0-10.754a3.764,3.764,0,1,0,3.76,3.765A3.772,3.772,0,0,0,4669.8,498.332Zm34.41,10.754a6.99,6.99,0,1,1,6.98-6.989A6.993,6.993,0,0,1,4704.21,509.086Zm0-10.754a3.764,3.764,0,1,0,3.76,3.765A3.772,3.772,0,0,0,4704.21,498.332Z" transform="translate(-4637 -465)"/>
</svg>
